HIERARCHY
ROOT SpineBase
{
  OFFSET 0.000000 0.000000 0.000000
  CHANNELS 6 Xposition Yposition Zposition Zrotation Xrotation Yrotation
  JOINT SpineMid
  {
    OFFSET 0.000000 34.530442 0.000000
    CHANNELS 3 Zrotation Xrotation Yrotation
    JOINT SpineShoulder
    {
      OFFSET -0.117110 25.695330 -0.933998
      CHANNELS 3 Zrotation Xrotation Yrotation
      JOINT Neck
      {
        OFFSET -0.079633 8.532316 -0.687546
        CHANNELS 3 Zrotation Xrotation Yrotation
        JOINT Head
        {
          OFFSET -0.030429 12.898740 3.339928
          CHANNELS 3 Zrotation Xrotation Yrotation
          End Site
          {
            OFFSET 0 0 0
          }
        }
      }
      JOINT ShoulderLeft
      {
        OFFSET -14.361423 -5.873176 -7.298252
        CHANNELS 3 Zrotation Xrotation Yrotation
        JOINT ElbowLeft
        {
          OFFSET -5.810006 -27.791922 2.798837
          CHANNELS 3 Zrotation Xrotation Yrotation
          JOINT WristLeft
          {
            OFFSET -4.502198 -28.850766 8.046391
            CHANNELS 3 Zrotation Xrotation Yrotation
            JOINT HandLeft
            {
              OFFSET 0.183941 -4.312410 0.700555
              CHANNELS 3 Zrotation Xrotation Yrotation
              JOINT HandTipLeft
              {
                OFFSET 0.904924 -4.431663 0.090816
                CHANNELS 3 Zrotation Xrotation Yrotation
                End Site
                {
                  OFFSET 0 0 0
                }
              }
              JOINT ThumbLeft
              {
                OFFSET 1.036286 0.592451 1.337841
                CHANNELS 3 Zrotation Xrotation Yrotation
                End Site
                {
                  OFFSET 0 0 0
                }
              }
            }
          }
        }
      }
      JOINT ShoulderRight
      {
        OFFSET 16.375098 -5.457350 -2.637805
        CHANNELS 3 Zrotation Xrotation Yrotation
        JOINT ElbowRight
        {
          OFFSET 6.087340 -25.149947 5.452799
          CHANNELS 3 Zrotation Xrotation Yrotation
          JOINT WristRight
          {
            OFFSET 1.171057 -22.250173 7.303174
            CHANNELS 3 Zrotation Xrotation Yrotation
            JOINT HandRight
            {
              OFFSET -1.412371 -7.831466 2.058282
              CHANNELS 3 Zrotation Xrotation Yrotation
              JOINT HandTipRight
              {
                OFFSET 0.688646 -3.331416 -0.162892
                CHANNELS 3 Zrotation Xrotation Yrotation
                End Site
                {
                  OFFSET 0 0 0
                }
              }
              JOINT ThumbRight
              {
                OFFSET -1.916892 1.950135 -3.406373
                CHANNELS 3 Zrotation Xrotation Yrotation
                End Site
                {
                  OFFSET 0 0 0
                }
              }
            }
          }
        }
      }
    }
  }
  JOINT HipLeft
  {
    OFFSET -7.242093 1.962585 -4.783534
    CHANNELS 3 Zrotation Xrotation Yrotation
    JOINT KneeLeft
    {
      OFFSET -1.002154 -32.064203 -3.308943
      CHANNELS 3 Zrotation Xrotation Yrotation
      JOINT AnkleLeft
      {
        OFFSET -1.882274 -33.948073 -5.659563
        CHANNELS 3 Zrotation Xrotation Yrotation
        JOINT FootLeft
        {
          OFFSET 4.413751 -6.075965 -6.413266
          CHANNELS 3 Zrotation Xrotation Yrotation
          End Site
          {
            OFFSET 0 0 0
          }
        }
      }
    }
  }
  JOINT HipRight
  {
    OFFSET 6.586468 1.416596 -2.415580
    CHANNELS 3 Zrotation Xrotation Yrotation
    JOINT KneeRight
    {
      OFFSET 7.415183 -33.156787 -2.840633
      CHANNELS 3 Zrotation Xrotation Yrotation
      JOINT AnkleRight
      {
        OFFSET 1.268287 -30.827803 -1.886721
        CHANNELS 3 Zrotation Xrotation Yrotation
        JOINT FootRight
        {
          OFFSET 1.453903 -2.647280 -13.863945
          CHANNELS 3 Zrotation Xrotation Yrotation
          End Site
          {
            OFFSET 0 0 0
          }
        }
      }
    }
  }
}
MOTION
Frames: 10
Frame Time: 0.033333
22.840004 70.505776 267.014994 0.783494 0.918823 -7.503362 -0.073192 0.032276 7.526647 0.010229 0.017384 0.037212 -0.540606 -2.144246 -0.120132 0.000000 0.000000 0.000000 0.888654 0.093474 -0.123225 -1.523518 0.089885 -0.109337 1.495052 3.327055 0.579178 -4.618732 4.628998 1.293844 0.000000 0.000000 0.000000 0.000000 0.000000 0.000000 0.203299 0.019207 0.376644 -3.581105 0.403039 -1.268164 14.014889 -5.134697 5.200661 -9.162130 -4.062492 -5.185591 0.000000 0.000000 0.000000 0.000000 0.000000 0.000000 -0.206486 1.259386 7.345291 -0.737681 -2.196260 0.130872 1.854344 -5.346908 -5.976920 0.000000 0.000000 0.000000 -0.622243 0.022706 7.705507 -0.173264 -1.021895 -0.215481 -0.364181 0.221302 2.012434 0.000000 0.000000 0.000000
22.814223 70.506099 267.074929 0.837475 0.908005 -7.538258 -0.041170 0.035601 7.564509 0.019454 0.011973 0.041765 -0.565459 -1.826577 -0.144702 0.000000 0.000000 0.000000 1.128559 0.170923 -0.109363 -1.707904 -0.026110 -0.082080 0.636096 4.799071 0.474594 -5.717420 4.526229 1.542977 0.000000 0.000000 0.000000 0.000000 0.000000 0.000000 0.131917 0.079343 0.383592 -3.652366 0.293987 -1.306948 14.937767 -4.289952 5.284112 -13.170411 -3.557286 -4.962872 0.000000 0.000000 0.000000 0.000000 0.000000 0.000000 -0.225013 1.326129 7.372553 -0.782427 -2.254265 0.136064 3.354267 -4.891902 -7.114452 0.000000 0.000000 0.000000 -0.649067 0.141528 7.760810 -0.217112 -1.132523 -0.237132 -0.382082 0.221754 2.105795 0.000000 0.000000 0.000000
22.772669 70.502901 267.156112 0.907752 0.884004 -7.464218 0.001188 0.044552 7.494407 0.023145 0.005928 0.046989 -0.939237 -0.932582 -0.091982 0.000000 0.000000 0.000000 1.416930 0.371389 -0.116861 -2.040983 -0.422072 -0.036895 -0.151363 5.887976 0.361075 -6.716203 2.845842 1.292072 0.000000 0.000000 0.000000 0.000000 0.000000 0.000000 0.035675 0.177344 0.394496 -3.698226 0.354362 -1.331902 16.588519 -3.406654 5.561328 -16.753583 -1.184360 -4.498446 0.000000 0.000000 0.000000 0.000000 0.000000 0.000000 -0.259442 1.487967 7.286593 -0.837062 -2.395432 0.144040 4.534481 -4.770102 -8.177506 0.000000 0.000000 0.000000 -0.681386 0.279854 7.707237 -0.273940 -1.248735 -0.259174 -0.421330 0.215200 2.307173 0.000000 0.000000 0.000000
22.728114 70.500736 267.270541 1.022799 0.872597 -7.280105 0.036724 0.052403 7.315151 0.010630 0.002493 0.052522 -1.078037 -0.920629 -0.104068 0.000000 0.000000 0.000000 0.968238 0.015485 -0.078340 -1.219412 0.370022 0.003684 1.491664 7.703850 0.604089 -11.128739 0.897019 0.254597 0.000000 0.000000 0.000000 0.000000 0.000000 0.000000 0.079566 0.305449 0.449878 -3.950080 0.368198 -1.422362 18.510251 -3.077378 6.080355 -20.017742 0.570770 -4.379520 0.000000 0.000000 0.000000 0.000000 0.000000 0.000000 -0.336152 1.700211 7.086674 -0.896880 -2.604434 0.153907 5.012998 -4.988364 -8.809901 0.000000 0.000000 0.000000 -0.762107 0.420689 7.547372 -0.326789 -1.384809 -0.286144 -0.505706 0.206413 2.742947 0.000000 0.000000 0.000000
22.668566 70.508083 267.406125 1.174636 0.848316 -7.274221 0.057755 0.053950 7.314615 0.017320 0.014891 0.060618 -1.257816 -0.907014 -0.119718 0.000000 0.000000 0.000000 2.778843 1.263335 -0.182093 -4.032152 -2.180028 -0.026935 0.421334 8.415078 0.401769 -10.107551 0.985652 0.633304 0.000000 0.000000 0.000000 0.000000 0.000000 0.000000 0.161940 0.471516 0.527052 -4.370798 0.388745 -1.569906 20.392429 -3.257682 6.751413 -22.700917 4.869410 -3.655960 0.000000 0.000000 0.000000 0.000000 0.000000 0.000000 -0.477289 1.930869 7.066222 -0.936472 -2.827110 0.162284 4.927471 -5.295644 -8.965243 0.000000 0.000000 0.000000 -0.844589 0.668929 7.582274 -0.430491 -1.616308 -0.331364 -0.545890 0.197413 2.948696 0.000000 0.000000 0.000000
22.571951 70.520144 267.565129 1.288786 0.793016 -7.512746 0.088540 0.099407 7.558001 0.022560 0.013394 0.067667 -0.570285 -0.970245 -0.338194 0.000000 0.000000 0.000000 2.709876 1.541180 -0.253183 -4.116370 -2.445774 0.008659 1.482884 10.125553 0.550161 -9.170615 -1.069541 0.120037 0.000000 0.000000 0.000000 0.000000 0.000000 0.000000 0.287511 0.686631 0.620251 -4.326286 0.651678 -1.551539 20.990275 -3.574972 7.030098 -22.970334 3.287857 -4.339146 0.000000 0.000000 0.000000 0.000000 0.000000 0.000000 -0.582275 2.216949 7.288864 -0.990676 -3.070498 0.172105 3.863546 -5.923311 -8.425210 0.000000 0.000000 0.000000 -0.871778 1.056460 7.881734 -0.575575 -1.950469 -0.397757 -0.569900 0.187080 3.069696 0.000000 0.000000 0.000000
22.447633 70.527246 267.798624 1.408442 0.721295 -7.764003 0.148629 0.129790 7.815653 0.022989 -0.024732 0.075736 0.113435 0.347744 -0.579225 0.000000 0.000000 0.000000 2.417964 1.639257 -0.286466 -3.085128 -1.466704 0.158522 -2.208552 5.080267 -0.016179 -6.815512 2.163160 1.279346 0.000000 0.000000 0.000000 0.000000 0.000000 0.000000 0.293537 1.133569 0.725539 -3.904795 0.611425 -1.472097 20.515975 -3.760320 6.903977 -23.168277 4.984339 -3.902788 0.000000 0.000000 0.000000 0.000000 0.000000 0.000000 -0.644319 2.617334 7.513500 -1.110489 -3.405973 0.188591 3.515493 -6.773834 -8.765854 0.000000 0.000000 0.000000 -0.859263 1.601871 8.216745 -0.793276 -2.418026 -0.491272 -0.512145 0.174743 2.763075 0.000000 0.000000 0.000000
22.300054 70.508807 268.025917 1.459978 0.536995 -8.658873 0.157014 0.110715 8.713758 -0.006419 -0.067117 0.074966 0.535713 0.783591 -0.702731 0.000000 0.000000 0.000000 1.471465 0.949212 -0.158601 0.664452 1.033002 0.637965 -10.130118 3.949251 -1.443738 -2.159511 -0.289095 1.730965 0.000000 0.000000 0.000000 0.000000 0.000000 0.000000 0.496794 1.571929 0.811359 -3.433720 0.844642 -1.313787 19.521000 -3.272899 6.364335 -22.975599 6.405992 -3.283003 0.000000 0.000000 0.000000 0.000000 0.000000 0.000000 -0.596694 2.914112 8.384667 -1.294146 -3.513236 0.204281 3.262569 -6.739751 -8.491203 0.000000 0.000000 0.000000 -0.817618 2.268888 9.197962 0.008124 -2.482597 -0.584959 -1.405798 -0.305665 2.093198 0.000000 0.000000 0.000000
22.146809 70.514710 268.172058 1.444182 0.301969 -10.331075 0.147014 0.070040 10.386842 -0.036993 -0.113625 0.069892 0.671908 0.820774 -0.717695 0.000000 0.000000 0.000000 1.125161 1.395086 -0.229263 2.719230 1.968740 0.979620 -13.863553 2.950861 -2.304810 -0.666604 -2.075674 1.610273 0.000000 0.000000 0.000000 0.000000 0.000000 0.000000 0.906479 1.682493 0.834395 -3.073079 1.558608 -1.068266 17.112992 -0.857814 4.712814 -22.365103 4.428924 -2.669498 0.000000 0.000000 0.000000 0.000000 0.000000 0.000000 -0.470294 2.965795 10.043024 -1.498941 -3.310782 0.215434 2.991840 -5.968082 -7.605362 0.000000 0.000000 0.000000 -0.769045 2.935147 10.945601 -0.044743 -2.839042 -0.662111 -1.401305 -0.449287 1.126505 0.000000 0.000000 0.000000
22.025410 70.520950 268.234479 1.370500 0.087371 -12.269303 0.103150 0.004736 12.322375 -0.090630 -0.145776 0.058494 1.155372 0.588272 -0.779182 0.000000 0.000000 0.000000 1.434897 2.810637 -0.472696 3.944509 1.648285 1.521181 -17.211053 1.067320 -3.282288 -1.464269 -2.695503 1.394511 0.000000 0.000000 0.000000 0.000000 0.000000 0.000000 1.470922 1.387635 0.786885 -2.824686 2.726791 -0.759620 13.391615 0.020446 3.159561 -19.786940 5.922277 -0.967127 0.000000 0.000000 0.000000 0.000000 0.000000 0.000000 -0.307248 2.782499 11.981979 -1.648974 -2.879087 0.219213 2.464032 -4.355749 -5.810769 0.000000 0.000000 0.000000 -0.725527 3.445830 12.932287 -0.150207 -3.011229 -0.708925 -1.277798 -0.597050 0.047022 0.000000 0.000000 0.000000
